<svg width="44" height="44" viewBox="0 0 44 44" fill="none" xmlns="http://www.w3.org/2000/svg">
<g id="Group">
<path id="Vector" d="M43.4719 21.9875C43.5034 33.9688 33.7536 43.7267 21.737 43.7371C9.73096 43.7455 -0.00628174 34.0108 3.04062e-06 22.0043C0.00628783 10.0166 9.69956 0.304976 21.693 0.263061C33.653 0.223242 43.4384 9.9831 43.4699 21.9875H43.4719ZM21.7664 1.34656C10.4621 1.26063 1.16688 10.4798 1.05376 21.7695C0.936439 33.3066 10.2128 42.6201 21.5883 42.6892C33.2885 42.7626 42.3323 33.2165 42.4036 22.151C42.4769 10.7313 33.1377 1.27949 21.7664 1.34656Z" fill="black"/>
<path id="Vector_2" d="M21.7663 1.34657C33.1376 1.27951 42.4768 10.7313 42.4035 22.151C42.3323 33.2165 33.2885 42.7605 21.5882 42.6892C10.2128 42.618 0.936397 33.3066 1.05371 21.7696C1.16684 10.4798 10.4621 1.26065 21.7663 1.34657ZM21.7391 1.91242C10.6715 1.90404 1.6801 10.878 1.65706 21.9603C1.63191 33.1075 10.5752 42.0647 21.7475 42.0836C32.7898 42.1003 41.7708 33.1495 41.8148 22.0818C41.8588 10.9723 32.8506 1.9208 21.7391 1.91242Z" fill="white"/>
<path id="Vector_3" d="M21.7392 1.91236C32.8486 1.92074 41.8589 10.9723 41.8149 22.0818C41.7709 33.1494 32.7899 42.1003 21.7476 42.0835C10.5753 42.0647 1.6341 33.1075 1.65715 21.9602C1.68019 10.8779 10.6716 1.90398 21.7392 1.91236ZM33.762 20.5078C34.5497 20.3989 34.6817 20.2103 34.3465 19.6884C34.1307 19.3531 33.7725 18.9927 33.41 18.8942C32.1845 18.5567 31.1873 17.8882 30.2132 17.1044C28.9122 16.0544 27.5861 16.0167 26.1574 16.8634C25.95 16.9849 25.7531 17.1233 25.5394 17.2301C24.9277 17.5403 24.3117 17.7562 23.633 17.3831C23.5282 17.3244 23.2182 17.3957 23.1973 17.4649C23.0506 17.9804 22.6861 17.8421 22.3174 17.8211V10.3729C22.5855 10.3435 22.8285 10.3184 23.1365 10.2848C22.6903 9.09655 22.2629 7.95648 21.8355 6.8164C21.7894 6.8164 21.7454 6.81848 21.6994 6.8206C21.272 7.96068 20.8467 9.10283 20.4047 10.2828C20.6833 10.3184 20.8949 10.3456 21.1442 10.377V17.9154C20.8823 17.8127 20.5576 17.7834 20.5074 17.6493C20.3251 17.1715 20.0485 17.3244 19.7196 17.4187C19.4515 17.4963 19.1373 17.5843 18.888 17.511C18.3852 17.3664 17.874 17.1777 17.4383 16.8948C16.175 16.0775 14.6206 16.0272 13.4642 17.0017C12.4188 17.8819 11.2938 18.5337 10.0013 18.9507C9.6912 19.0513 9.37907 19.3322 9.19683 19.6151C8.8407 20.1705 8.97686 20.4115 9.72052 20.5477C9.47336 20.8474 9.30783 21.1638 9.04806 21.3462C8.06762 22.0378 6.95942 22.5303 5.77998 22.6329C4.99439 22.7021 4.17526 22.4066 3.3729 22.2641C3.29748 22.2515 3.24091 22.1488 3.1634 22.1216C3.01257 22.0671 2.85545 22.0356 2.70042 21.9958C2.669 22.1698 2.5873 22.35 2.61453 22.5135C2.71928 23.1234 3.26396 23.5278 4.04537 23.6368C4.68223 23.7248 5.29184 23.7688 5.8533 24.232C9.45032 27.2038 13.0766 30.1378 16.7009 33.076C17.9138 34.0589 19.1561 35.0041 20.3607 35.9954C20.5744 36.1714 20.6812 36.4837 20.8174 36.7436C20.9075 36.9154 20.9641 37.1062 21.0374 37.2885C21.2133 37.213 21.3914 37.1418 21.5632 37.058C21.6365 37.0223 21.6952 36.9615 21.7748 36.9008C21.8712 36.9783 21.9445 37.0495 22.0282 37.102C22.2063 37.213 22.3928 37.3136 22.575 37.4163C22.6526 37.2067 22.7196 36.993 22.8076 36.7897C22.9018 36.5738 22.9668 36.3055 23.1323 36.1631C23.7419 35.637 24.3935 35.1613 25.0198 34.652C29.0987 31.3491 33.1817 28.0504 37.2438 24.7266C37.9498 24.1503 38.6453 23.6473 39.5943 23.5949C39.8373 23.5823 40.1306 23.4838 40.3003 23.3203C40.5579 23.0731 40.7528 22.7482 40.9267 22.4296C40.979 22.3333 40.9183 22.0902 40.8303 22.0273C40.7423 21.9644 40.5516 22.0336 40.4092 22.065C40.1557 22.1216 39.9064 22.1929 39.655 22.2557C39.4099 22.3165 39.1669 22.3773 38.9197 22.4276C38.5133 22.5114 38.0545 22.744 37.7047 22.6371C36.6488 22.3144 35.616 21.8932 34.6125 21.43C34.2962 21.2854 34.0972 20.8851 33.7578 20.5058L33.762 20.5078Z" fill="#FB1807"/>
<path id="Vector_4" d="M33.762 20.5079C34.1035 20.8893 34.3025 21.2875 34.6168 21.4321C35.6223 21.8952 36.653 22.3165 37.7089 22.6392C38.0608 22.7461 38.5175 22.5135 38.924 22.4296C39.1711 22.3794 39.4142 22.3186 39.6593 22.2578C39.9107 22.1949 40.16 22.1237 40.4135 22.0671C40.5538 22.0356 40.7465 21.9665 40.8345 22.0294C40.9225 22.0923 40.9833 22.3354 40.9309 22.4318C40.757 22.7503 40.5622 23.0752 40.3045 23.3225C40.1327 23.4859 39.8415 23.5844 39.5985 23.597C38.6495 23.6494 37.9519 24.1523 37.248 24.7287C33.1859 28.0526 29.1029 31.3491 25.024 34.6541C24.3977 35.1613 23.7462 35.6391 23.1365 36.1651C22.971 36.3077 22.9061 36.5738 22.8118 36.7918C22.7238 36.9951 22.6547 37.2088 22.5793 37.4184C22.397 37.3136 22.2127 37.213 22.0325 37.104C21.9487 37.0516 21.8754 36.9804 21.779 36.9029C21.6994 36.9615 21.6386 37.0244 21.5674 37.06C21.3956 37.1439 21.2176 37.2151 21.0416 37.2906C20.9704 37.1082 20.9138 36.9196 20.8216 36.7457C20.6854 36.4858 20.5786 36.1735 20.3649 35.9975C19.1604 35.0062 17.9181 34.0611 16.7051 33.0782C13.0808 30.1399 9.45451 27.2059 5.8575 24.2341C5.29816 23.7709 4.68645 23.7269 4.04959 23.6389C3.26818 23.5299 2.7214 23.1254 2.61875 22.5156C2.59152 22.3521 2.67322 22.1719 2.70464 21.9979C2.85967 22.0378 3.01888 22.0692 3.16762 22.1237C3.24513 22.1509 3.3017 22.2536 3.37711 22.2662C4.17948 22.4087 4.99859 22.7042 5.78418 22.635C6.96362 22.5323 8.07186 22.0398 9.0523 21.3483C9.31207 21.1659 9.47755 20.8495 9.72476 20.5498C8.98105 20.4136 8.84489 20.1705 9.20102 19.6172C9.38327 19.3343 9.69332 19.0534 10.0055 18.9529C11.3001 18.5358 12.4251 17.884 13.4684 17.0038C14.6248 16.0293 16.1792 16.0817 17.4425 16.8969C17.8782 17.1798 18.3894 17.3664 18.8922 17.5131C19.1415 17.5843 19.4557 17.4963 19.7239 17.4209C20.0507 17.3265 20.3272 17.1736 20.5116 17.6514C20.5618 17.7855 20.8866 17.8149 21.1484 17.9175V10.377C20.8991 10.3456 20.6876 10.3184 20.4089 10.2828C20.8509 9.10284 21.2762 7.96276 21.7036 6.82061C21.7497 6.82061 21.7937 6.81848 21.8398 6.81641C22.2671 7.95648 22.6945 9.09656 23.1407 10.2848C22.8328 10.3184 22.5898 10.3435 22.3216 10.3728V17.8191C22.6903 17.84 23.0527 17.9783 23.2015 17.4628C23.2203 17.3957 23.5304 17.3244 23.6372 17.381C24.316 17.7541 24.9319 17.5382 25.5436 17.228C25.7573 17.1191 25.9563 16.9829 26.1616 16.8613C27.5903 16.0146 28.9164 16.0523 30.2174 17.1023C31.1894 17.8861 32.1888 18.5547 33.4143 18.892C33.7767 18.9905 34.1349 19.3531 34.3507 19.6863C34.6859 20.2061 34.5539 20.3968 33.7662 20.5058L33.762 20.5079ZM36.9882 23.773C36.7829 23.7123 36.6593 23.6557 36.5336 23.641C34.623 23.4063 32.9492 22.635 31.4953 21.3881C31.3612 21.2728 31.2209 21.0549 31.2334 20.8956C31.29 20.0782 31.1161 19.6444 30.3766 19.3405C29.2789 18.89 28.156 18.4939 26.9744 19.1205C26.8466 19.1896 26.6686 19.1582 26.5282 19.2127C26.2873 19.3049 26.0422 19.4013 25.8285 19.5418C25.5603 19.7157 25.3488 19.9965 25.0638 20.1202C24.4857 20.3716 24.3118 20.248 24.2427 19.6151C24.2049 19.2798 24.0437 19.0996 23.7147 19.1226C23.258 19.1519 22.8034 19.2127 22.2965 19.2651C22.2965 19.4768 22.2965 19.678 22.2965 19.8791C22.2985 23.9638 22.3007 28.0504 22.3048 32.135C22.3048 33.164 22.154 34.2224 22.9459 35.1131C27.5736 31.3764 32.2516 27.5978 36.9882 23.773ZM6.62845 23.7248C11.3525 27.5454 16.0326 31.3303 20.7713 35.1655C20.9285 34.5389 21.1631 34.0338 21.1673 33.5266C21.2092 28.9097 21.2134 24.2928 21.2239 19.6738C21.2239 19.5249 21.1841 19.3783 21.161 19.2232C20.7462 19.196 20.3712 19.1729 19.9962 19.1456C19.5521 19.1121 19.2546 19.2232 19.2902 19.7576C19.3175 20.1558 19.0493 20.3214 18.7288 20.1935C18.3768 20.0552 18.0836 19.7785 17.7505 19.5816C17.5012 19.4349 17.2372 19.3112 16.9712 19.198C16.8329 19.1394 16.6569 19.1603 16.5228 19.0953C15.312 18.5043 14.1765 18.8983 13.0704 19.3867C12.4084 19.678 12.2219 20.1474 12.2848 20.8767C12.2973 21.0192 12.2198 21.2183 12.1151 21.3147C11.3001 22.0608 10.4119 22.7126 9.33931 23.0312C8.47407 23.2868 7.59005 23.4796 6.62425 23.7227L6.62845 23.7248Z" fill="white"/>
<path id="Vector_5" d="M36.986 23.773C32.2493 27.5977 27.5714 31.3764 22.9436 35.1131C22.1518 34.2245 22.3026 33.164 22.3026 32.135C22.2984 28.0504 22.2963 23.9637 22.2942 19.8791C22.2942 19.678 22.2942 19.4747 22.2942 19.2651C22.8012 19.2127 23.2558 19.1519 23.7125 19.1226C24.0414 19.1016 24.2027 19.2818 24.2404 19.6151C24.3096 20.248 24.4834 20.3716 25.0616 20.1201C25.3465 19.9965 25.5581 19.7156 25.8263 19.5417C26.04 19.4013 26.2851 19.3049 26.526 19.2127C26.6663 19.1603 26.8444 19.1896 26.9722 19.1205C28.1537 18.4938 29.2788 18.8878 30.3744 19.3405C31.1139 19.6444 31.2878 20.0782 31.2312 20.8956C31.2207 21.0549 31.359 21.2728 31.4931 21.3881C32.947 22.635 34.6208 23.4063 36.5314 23.641C36.6592 23.6557 36.7807 23.7123 36.986 23.773Z" fill="#EC2F31"/>
<path id="Vector_6" d="M6.62622 23.7269C7.59197 23.4838 8.47605 23.291 9.34124 23.0353C10.416 22.7168 11.3021 22.0671 12.117 21.3189C12.2218 21.2225 12.2993 21.0234 12.2867 20.8809C12.226 20.1516 12.4124 19.6822 13.0723 19.3908C14.1785 18.9025 15.3139 18.5085 16.5248 19.0995C16.6588 19.1645 16.8327 19.1435 16.9731 19.2022C17.2391 19.3133 17.5031 19.4391 17.7524 19.5857C18.0834 19.7806 18.3788 20.0573 18.7307 20.1977C19.0492 20.3235 19.3194 20.16 19.2922 19.7618C19.2545 19.2274 19.5519 19.1142 19.9981 19.1498C20.3732 19.1792 20.7481 19.2002 21.163 19.2274C21.186 19.3804 21.2258 19.5291 21.2258 19.678C21.2153 24.2949 21.2112 28.9118 21.1692 33.5308C21.165 34.038 20.9304 34.543 20.7733 35.1697C16.0324 31.3366 11.3545 27.5516 6.63042 23.729L6.62622 23.7269Z" fill="#EC2F31"/>
</g>
</svg>
