<svg width="98" height="20" viewBox="0 0 98 20" fill="none" xmlns="http://www.w3.org/2000/svg">
<path id="Vector" d="M5.15795 8.61531L7.25909 1.46417H9.67903L6.46211 11.1874H4.01319L0.854225 1.46417H3.30314L5.36082 8.61531H5.15795ZM12.5414 3.13059C12.1019 3.13059 11.7613 3.0195 11.5198 2.79731C11.2831 2.57029 11.1648 2.2515 11.1648 1.84093C11.1648 1.44002 11.2831 1.12122 11.5198 0.884544C11.7613 0.643033 12.1019 0.522278 12.5414 0.522278C12.9665 0.522278 13.3022 0.643033 13.5485 0.884544C13.7949 1.12122 13.918 1.44002 13.918 1.84093C13.918 2.2515 13.7949 2.57029 13.5485 2.79731C13.3022 3.0195 12.9665 3.13059 12.5414 3.13059ZM11.3822 11.1874V4.00728H13.7007V11.1874H11.3822ZM19.1255 11.4192C18.4444 11.4192 17.8431 11.3299 17.3214 11.1512C16.7997 10.9676 16.3916 10.6947 16.0969 10.3324C15.8071 9.96535 15.6646 9.50407 15.6695 8.94859H17.7634C17.773 9.19976 17.8696 9.37365 18.0532 9.47025C18.2416 9.56686 18.4951 9.61516 18.8139 9.61516C19.0071 9.61516 19.1665 9.59101 19.2921 9.54271C19.4177 9.49441 19.5119 9.43161 19.5747 9.35433C19.6375 9.27222 19.6689 9.18527 19.6689 9.0935C19.6689 8.97274 19.6254 8.87614 19.5385 8.80368C19.4515 8.73123 19.3163 8.65878 19.1327 8.58633L17.4011 7.91251C16.8891 7.69998 16.493 7.4319 16.2129 7.10828C15.9375 6.77982 15.7999 6.39099 15.7999 5.94178C15.7999 5.30902 16.0921 4.79702 16.6766 4.40577C17.261 4.01452 18.0604 3.8189 19.0748 3.8189C20.0263 3.8189 20.7581 4.04109 21.2701 4.48547C21.7821 4.92985 22.0405 5.49499 22.0454 6.18088H19.9225C19.9225 6.02631 19.8573 5.89348 19.7268 5.78238C19.5964 5.66646 19.3791 5.6085 19.0748 5.6085C18.8236 5.6085 18.6256 5.64955 18.4806 5.73167C18.3357 5.81378 18.2633 5.92246 18.2633 6.05771C18.2633 6.24125 18.4154 6.38616 18.7197 6.49242L20.6905 7.28217C21.1783 7.47538 21.5623 7.71689 21.8425 8.0067C22.1226 8.29651 22.2627 8.65878 22.2627 9.0935C22.2627 9.48958 22.1251 9.86633 21.8497 10.2238C21.5792 10.5764 21.2073 10.8638 20.734 11.086C20.2606 11.3082 19.7244 11.4192 19.1255 11.4192ZM27.73 11.4192C26.8799 11.4192 26.1312 11.2285 25.484 10.8469C24.8416 10.4653 24.3392 9.89773 23.977 9.14421C23.6147 8.3907 23.4336 7.45605 23.4336 6.34027C23.4336 5.21966 23.6123 4.2826 23.9697 3.52909C24.332 2.77557 24.8367 2.20802 25.484 1.82644C26.1312 1.44002 26.8799 1.24681 27.73 1.24681C28.9569 1.24681 29.8916 1.53662 30.534 2.11625C31.1764 2.69588 31.558 3.44697 31.6787 4.36954L29.2153 4.79702C29.1042 4.38162 28.9279 4.03868 28.6864 3.76818C28.4497 3.49286 28.1309 3.3552 27.73 3.3552C27.3726 3.3552 27.0562 3.46388 26.7809 3.68124C26.5104 3.89377 26.3003 4.21981 26.1506 4.65936C26.0008 5.09891 25.9259 5.65921 25.9259 6.34027C25.9259 7.00684 26.0032 7.5599 26.1578 7.99945C26.3124 8.43417 26.5249 8.7578 26.7954 8.97033C27.0707 9.18286 27.3823 9.28912 27.73 9.28912C28.2275 9.28912 28.5995 9.1587 28.8458 8.89787C29.0922 8.63221 29.2153 8.311 29.2153 7.93425H31.6642C31.6642 8.68293 31.5121 9.3181 31.2078 9.83977C30.9083 10.3566 30.4664 10.7503 29.8819 11.0208C29.2974 11.2864 28.5802 11.4192 27.73 11.4192ZM36.5732 11.4192C35.9115 11.4192 35.3028 11.284 34.7474 11.0135C34.1967 10.7382 33.7548 10.3228 33.4215 9.76731C33.093 9.20701 32.9288 8.49697 32.9288 7.63719C32.9288 6.74843 33.093 6.0239 33.4215 5.46359C33.7548 4.90329 34.1967 4.4903 34.7474 4.22464C35.3028 3.95415 35.9115 3.8189 36.5732 3.8189C37.2204 3.8189 37.817 3.95415 38.3628 4.22464C38.9086 4.4903 39.3457 4.90329 39.6742 5.46359C40.0075 6.0239 40.1741 6.74843 40.1741 7.63719C40.1741 8.49697 40.0075 9.20701 39.6742 9.76731C39.3457 10.3228 38.9086 10.7382 38.3628 11.0135C37.817 11.284 37.2204 11.4192 36.5732 11.4192ZM36.4863 9.3978C36.7084 9.3978 36.9234 9.33984 37.1311 9.22391C37.3436 9.10799 37.5199 8.92202 37.66 8.66602C37.8001 8.40519 37.8701 8.06225 37.8701 7.63719C37.8701 6.97545 37.7518 6.50933 37.5151 6.23884C37.2784 5.96835 36.9934 5.8331 36.6601 5.8331C36.438 5.8331 36.2158 5.89106 35.9936 6.00699C35.7762 6.12291 35.5951 6.31371 35.4502 6.57937C35.3101 6.8402 35.2401 7.19281 35.2401 7.63719C35.2401 8.27961 35.3632 8.73365 35.6096 8.99931C35.8607 9.26497 36.153 9.3978 36.4863 9.3978ZM51.3889 11.1874V7.02858C51.3889 6.65182 51.2971 6.37409 51.1136 6.19537C50.9349 6.01182 50.7103 5.92005 50.4398 5.92005C50.0437 5.92005 49.7201 6.09152 49.4689 6.43446C49.2177 6.77258 49.0921 7.35462 49.0921 8.18059H48.1792C48.1792 7.32564 48.2565 6.61801 48.4111 6.05771C48.5657 5.49257 48.7782 5.04819 49.0487 4.72457C49.3192 4.39611 49.6283 4.16426 49.9761 4.02902C50.3287 3.88894 50.703 3.8189 51.0991 3.8189C51.7077 3.8189 52.2052 3.95656 52.5916 4.23188C52.9829 4.50721 53.2703 4.88638 53.4538 5.3694C53.6422 5.85242 53.7364 6.40548 53.7364 7.02858V11.1874H51.3889ZM42.0352 11.1874V4.05075H44.0784L44.3247 5.05785C44.5711 4.62796 44.8778 4.314 45.2449 4.11596C45.6168 3.91792 46.0201 3.8189 46.4549 3.8189C47.0683 3.8189 47.5682 3.95656 47.9546 4.23188C48.3459 4.50721 48.6333 4.88638 48.8168 5.3694C49.0004 5.85242 49.0921 6.40548 49.0921 7.02858V11.1874H46.7592V7.02858C46.7592 6.65182 46.6674 6.37409 46.4838 6.19537C46.3003 6.01182 46.0781 5.92005 45.8173 5.92005C45.5516 5.92005 45.3077 5.99491 45.0855 6.14465C44.8633 6.29439 44.6846 6.5359 44.5493 6.86918C44.4189 7.19764 44.3537 7.63477 44.3537 8.18059V11.1874H42.0352ZM65.3415 11.1874V7.02858C65.3415 6.65182 65.2497 6.37409 65.0662 6.19537C64.8874 6.01182 64.6628 5.92005 64.3923 5.92005C63.9963 5.92005 63.6726 6.09152 63.4215 6.43446C63.1703 6.77258 63.0447 7.35462 63.0447 8.18059H62.1318C62.1318 7.32564 62.2091 6.61801 62.3637 6.05771C62.5182 5.49257 62.7308 5.04819 63.0012 4.72457C63.2717 4.39611 63.5809 4.16426 63.9286 4.02902C64.2812 3.88894 64.6556 3.8189 65.0517 3.8189C65.6603 3.8189 66.1578 3.95656 66.5442 4.23188C66.9355 4.50721 67.2229 4.88638 67.4064 5.3694C67.5948 5.85242 67.689 6.40548 67.689 7.02858V11.1874H65.3415ZM55.9878 11.1874V4.05075H58.0309L58.2773 5.05785C58.5236 4.62796 58.8304 4.314 59.1974 4.11596C59.5694 3.91792 59.9727 3.8189 60.4074 3.8189C61.0209 3.8189 61.5208 3.95656 61.9072 4.23188C62.2984 4.50721 62.5858 4.88638 62.7694 5.3694C62.9529 5.85242 63.0447 6.40548 63.0447 7.02858V11.1874H60.7117V7.02858C60.7117 6.65182 60.6199 6.37409 60.4364 6.19537C60.2529 6.01182 60.0307 5.92005 59.7698 5.92005C59.5042 5.92005 59.2602 5.99491 59.0381 6.14465C58.8159 6.29439 58.6371 6.5359 58.5019 6.86918C58.3715 7.19764 58.3063 7.63477 58.3063 8.18059V11.1874H55.9878ZM72.7955 11.4192C72.1965 11.4192 71.6338 11.2647 71.1073 10.9555C70.5808 10.6464 70.1533 10.2044 69.8249 9.62965C69.5013 9.05486 69.3394 8.37379 69.3394 7.58647C69.3394 6.79914 69.5013 6.12533 69.8249 5.56502C70.1485 4.99989 70.5736 4.56758 71.1001 4.26811C71.6266 3.96864 72.1917 3.8189 72.7955 3.8189C73.3944 3.8189 73.9161 3.93966 74.3605 4.18117C74.8048 4.41785 75.1623 4.73906 75.4328 5.1448C75.7081 5.55053 75.8868 6.0094 75.9689 6.52141C76.0559 7.02858 76.039 7.55266 75.9182 8.09364H71.1725V6.9199H74.2228L73.8895 7.13726C73.904 6.9682 73.8968 6.79673 73.8678 6.62284C73.8436 6.44895 73.7929 6.28956 73.7156 6.14465C73.6383 5.99491 73.5273 5.87657 73.3824 5.78963C73.2423 5.69786 73.0611 5.65197 72.839 5.65197C72.5926 5.65197 72.3777 5.71235 72.1941 5.8331C72.0154 5.94903 71.8753 6.1205 71.7739 6.34752C71.6773 6.56971 71.629 6.84262 71.629 7.16624V8.07915C71.629 8.38345 71.6724 8.6467 71.7594 8.86889C71.8463 9.09108 71.9743 9.26497 72.1434 9.39056C72.3173 9.51131 72.5346 9.57169 72.7955 9.57169C73.008 9.57169 73.194 9.52822 73.3534 9.44127C73.5128 9.35433 73.6238 9.21667 73.6866 9.02829H75.9907C75.9182 9.47267 75.7395 9.87599 75.4545 10.2383C75.1744 10.6005 74.8073 10.8879 74.3532 11.1005C73.904 11.313 73.3848 11.4192 72.7955 11.4192ZM77.8798 11.1874V4.00728H80.1983V11.1874H77.8798ZM79.7056 8.14436C79.7056 7.17349 79.8288 6.3765 80.0751 5.7534C80.3214 5.1303 80.633 4.66902 81.0097 4.36954C81.3865 4.07007 81.7705 3.92034 82.1618 3.92034C82.239 3.92034 82.3163 3.92517 82.3936 3.93483C82.4709 3.93966 82.5433 3.94932 82.611 3.96381L82.6327 6.2968C82.5119 6.28231 82.3888 6.27265 82.2632 6.26782C82.1376 6.25816 82.0193 6.25333 81.9082 6.25333C81.5701 6.25333 81.2706 6.31612 81.0097 6.44171C80.7537 6.56729 80.5533 6.76775 80.4084 7.04307C80.2683 7.31839 80.1983 7.68549 80.1983 8.14436H79.7056ZM86.948 11.4192C86.3249 11.4192 85.7453 11.2623 85.2091 10.9483C84.6778 10.6343 84.2479 10.1924 83.9195 9.62241C83.5958 9.05244 83.434 8.38587 83.434 7.6227C83.434 6.78707 83.5958 6.0891 83.9195 5.5288C84.2479 4.96366 84.6778 4.5386 85.2091 4.25362C85.7453 3.96381 86.3249 3.8189 86.948 3.8189C87.4745 3.8189 87.9334 3.90826 88.3246 4.08698C88.7207 4.2657 89.0492 4.49996 89.31 4.78977C89.5708 5.07959 89.764 5.39838 89.8896 5.74616C90.02 6.09393 90.0852 6.43446 90.0852 6.76775L87.7667 6.74601C87.7329 6.53831 87.6484 6.34993 87.5132 6.18088C87.3827 6.00699 87.1895 5.92005 86.9335 5.92005C86.7307 5.92005 86.5374 5.97318 86.3539 6.07944C86.1752 6.18088 86.0279 6.35476 85.9119 6.60111C85.8008 6.84745 85.7453 7.18798 85.7453 7.6227C85.7453 8.04775 85.8008 8.38346 85.9119 8.6298C86.0279 8.87614 86.1752 9.05002 86.3539 9.15146C86.5374 9.25289 86.7307 9.30361 86.9335 9.30361C87.262 9.30361 87.4817 9.22874 87.5928 9.07901C87.7088 8.92444 87.7667 8.73123 87.7667 8.49938H90.0852C90.0852 9.01138 89.9717 9.48957 89.7447 9.93395C89.5177 10.3783 89.1723 10.7382 88.7086 11.0135C88.2497 11.284 87.6629 11.4192 86.948 11.4192ZM94.772 11.4192C94.173 11.4192 93.6103 11.2647 93.0838 10.9555C92.5573 10.6464 92.1299 10.2044 91.8014 9.62965C91.4778 9.05486 91.316 8.37379 91.316 7.58647C91.316 6.79914 91.4778 6.12533 91.8014 5.56502C92.125 4.99989 92.5501 4.56758 93.0766 4.26811C93.6031 3.96864 94.1682 3.8189 94.772 3.8189C95.3709 3.8189 95.8926 3.93966 96.337 4.18117C96.7814 4.41785 97.1388 4.73906 97.4093 5.1448C97.6846 5.55053 97.8633 6.0094 97.9454 6.52141C98.0324 7.02858 98.0155 7.55266 97.8947 8.09364H93.149V6.9199H96.1993L95.866 7.13726C95.8805 6.9682 95.8733 6.79673 95.8443 6.62284C95.8202 6.44895 95.7694 6.28956 95.6922 6.14465C95.6149 5.99491 95.5038 5.87657 95.3589 5.78963C95.2188 5.69786 95.0377 5.65197 94.8155 5.65197C94.5691 5.65197 94.3542 5.71235 94.1706 5.8331C93.9919 5.94903 93.8518 6.1205 93.7504 6.34752C93.6538 6.56971 93.6055 6.84262 93.6055 7.16624V8.07915C93.6055 8.38345 93.649 8.6467 93.7359 8.86889C93.8229 9.09108 93.9509 9.26497 94.1199 9.39056C94.2938 9.51131 94.5112 9.57169 94.772 9.57169C94.9845 9.57169 95.1705 9.52822 95.3299 9.44127C95.4893 9.35433 95.6004 9.21667 95.6632 9.02829H97.9672C97.8947 9.47267 97.716 9.87599 97.431 10.2383C97.1509 10.6005 96.7838 10.8879 96.3297 11.1005C95.8805 11.313 95.3613 11.4192 94.772 11.4192ZM1.32227 14.9023L2.65735 18.6874H2.71L4.04458 14.9023H4.61552L2.96454 19.3988H2.40231L0.751343 14.9023H1.32227ZM5.24586 19.3988V16.0264H5.76414V19.3988H5.24586ZM5.50911 15.4643C5.40815 15.4643 5.32121 15.4299 5.24779 15.3611C5.1763 15.2924 5.14056 15.2097 5.14056 15.1131C5.14056 15.0165 5.1763 14.9338 5.24779 14.8649C5.32121 14.7961 5.40815 14.7618 5.50911 14.7618C5.61006 14.7618 5.69652 14.7961 5.76849 14.8649C5.84142 14.9338 5.87813 15.0165 5.87813 15.1131C5.87813 15.2097 5.84142 15.2924 5.76849 15.3611C5.69652 15.4299 5.61006 15.4643 5.50911 15.4643ZM9.10182 16.7817L8.63619 16.9134C8.60721 16.8358 8.56374 16.7605 8.50674 16.6873C8.45119 16.6126 8.37487 16.5511 8.27827 16.5028C8.18167 16.4545 8.05801 16.4304 7.90731 16.4304C7.70106 16.4304 7.5291 16.4779 7.39144 16.5731C7.25523 16.6667 7.18712 16.7861 7.18712 16.931C7.18712 17.0598 7.23398 17.1615 7.32768 17.2361C7.42139 17.3108 7.56774 17.373 7.76675 17.4228L8.26764 17.5457C8.56905 17.6189 8.79365 17.7309 8.94145 17.8816C9.08926 18.0309 9.16316 18.2234 9.16316 18.459C9.16316 18.6523 9.10762 18.825 8.99652 18.9772C8.88639 19.1294 8.73279 19.2495 8.53524 19.3373C8.33768 19.4251 8.10776 19.469 7.84596 19.469C7.50205 19.469 7.21707 19.3944 6.99198 19.2451C6.76641 19.0958 6.62344 18.8777 6.56354 18.5908L7.05526 18.4678C7.10211 18.6494 7.19099 18.7855 7.32092 18.8762C7.45278 18.967 7.62474 19.0123 7.83727 19.0123C8.07878 19.0123 8.27054 18.9611 8.41255 18.8587C8.55552 18.7548 8.62749 18.6303 8.62749 18.4854C8.62749 18.3683 8.58643 18.2702 8.50432 18.1912C8.42269 18.1107 8.29662 18.0507 8.12708 18.0112L7.56484 17.8794C7.25619 17.8062 7.02917 17.6928 6.88427 17.5391C6.74081 17.384 6.66884 17.1901 6.66884 16.9573C6.66884 16.767 6.72246 16.5987 6.8292 16.4523C6.9374 16.306 7.08472 16.1911 7.27068 16.1076C7.4581 16.0242 7.67014 15.9825 7.90731 15.9825C8.24107 15.9825 8.50287 16.0557 8.69318 16.202C8.88494 16.3484 9.02115 16.5416 9.10182 16.7817ZM12.0685 18.02V16.0264H12.5868V19.3988H12.0685V18.8279H12.0333C11.9541 18.9992 11.8314 19.1448 11.6642 19.2648C11.4976 19.3834 11.287 19.4427 11.032 19.4427C10.8214 19.4427 10.634 19.3966 10.4702 19.3043C10.306 19.2107 10.1775 19.0702 10.0838 18.8828C9.9901 18.694 9.94324 18.4561 9.94324 18.1692V16.0264H10.4615V18.1341C10.4615 18.38 10.5301 18.5762 10.6678 18.7225C10.8069 18.8689 10.9837 18.9421 11.1991 18.9421C11.3276 18.9421 11.459 18.9092 11.5918 18.8433C11.7266 18.7774 11.8396 18.6764 11.9299 18.5403C12.0222 18.4042 12.0685 18.2307 12.0685 18.02ZM14.5281 19.4778C14.3141 19.4778 14.1204 19.4376 13.946 19.357C13.7722 19.2751 13.6335 19.1573 13.5311 19.0036C13.4287 18.8484 13.3775 18.661 13.3775 18.4415C13.3775 18.2483 13.4157 18.0917 13.4915 17.9717C13.5678 17.8502 13.6698 17.755 13.7968 17.6862C13.9243 17.6174 14.0649 17.5662 14.2185 17.5326C14.3735 17.4974 14.5295 17.4696 14.686 17.4491C14.8908 17.4228 15.057 17.403 15.1845 17.3898C15.3135 17.3752 15.4072 17.351 15.4656 17.3174C15.5255 17.2837 15.5555 17.2252 15.5555 17.1418V17.1242C15.5555 16.9075 15.4961 16.7392 15.3777 16.6192C15.2608 16.4992 15.0826 16.4391 14.844 16.4391C14.5967 16.4391 14.403 16.4933 14.2624 16.6016C14.1219 16.7099 14.0228 16.8256 13.9658 16.9485L13.4741 16.7729C13.562 16.568 13.6789 16.4084 13.8253 16.2942C13.9731 16.1786 14.1344 16.0981 14.3083 16.0527C14.4841 16.0059 14.6571 15.9825 14.8266 15.9825C14.9348 15.9825 15.0594 15.9956 15.2 16.022C15.342 16.0469 15.4787 16.0989 15.6105 16.1779C15.7438 16.2569 15.854 16.3762 15.9419 16.5358C16.0298 16.6953 16.0738 16.909 16.0738 17.1769V19.3988H15.5555V18.9421H15.5294C15.4941 19.0153 15.4357 19.0936 15.3536 19.177C15.2715 19.2604 15.1628 19.3314 15.0266 19.39C14.8904 19.4485 14.7242 19.4778 14.5281 19.4778ZM14.6073 19.0123C14.8121 19.0123 14.9845 18.9721 15.1251 18.8916C15.2671 18.8111 15.3739 18.7072 15.4458 18.5798C15.5188 18.4525 15.5555 18.3185 15.5555 18.178V17.7038C15.5337 17.7302 15.4854 17.7543 15.4106 17.7762C15.3376 17.7967 15.2526 17.815 15.156 17.8311C15.0609 17.8458 14.9676 17.8589 14.8773 17.8707C14.788 17.8809 14.7155 17.8897 14.6599 17.897C14.5252 17.9146 14.3991 17.9431 14.2822 17.9826C14.1663 18.0207 14.0726 18.0785 14.0011 18.1561C13.9311 18.2322 13.8958 18.3361 13.8958 18.4678C13.8958 18.6479 13.9625 18.784 14.0953 18.8762C14.2301 18.967 14.4006 19.0123 14.6073 19.0123ZM17.5378 14.9023V19.3988H17.0195V14.9023H17.5378ZM18.4865 19.3988V16.0264H19.0047V19.3988H18.4865ZM18.7502 15.4643C18.6492 15.4643 18.5618 15.4299 18.4889 15.3611C18.4169 15.2924 18.3812 15.2097 18.3812 15.1131C18.3812 15.0165 18.4169 14.9338 18.4889 14.8649C18.5618 14.7961 18.6492 14.7618 18.7502 14.7618C18.8511 14.7618 18.9376 14.7961 19.0091 14.8649C19.0825 14.9338 19.1187 15.0165 19.1187 15.1131C19.1187 15.2097 19.0825 15.2924 19.0091 15.3611C18.9376 15.4299 18.8511 15.4643 18.7502 15.4643ZM19.8573 19.3988V19.0036L21.7715 16.5445V16.5094H19.9186V16.0264H22.439V16.4391L20.5774 18.8806V18.9157H22.5008V19.3988H19.8573ZM24.2909 19.4778C24.0774 19.4778 23.8832 19.4376 23.7094 19.357C23.535 19.2751 23.3968 19.1573 23.2944 19.0036C23.192 18.8484 23.1408 18.661 23.1408 18.4415C23.1408 18.2483 23.1785 18.0917 23.2548 17.9717C23.3307 17.8502 23.4326 17.755 23.5601 17.6862C23.6871 17.6174 23.8277 17.5662 23.9813 17.5326C24.1368 17.4974 24.2924 17.4696 24.4494 17.4491C24.6542 17.4228 24.8203 17.403 24.9473 17.3898C25.0763 17.3752 25.17 17.351 25.2285 17.3174C25.2888 17.2837 25.3188 17.2252 25.3188 17.1418V17.1242C25.3188 16.9075 25.2594 16.7392 25.1406 16.6192C25.0237 16.4992 24.8459 16.4391 24.6073 16.4391C24.36 16.4391 24.1658 16.4933 24.0253 16.6016C23.8847 16.7099 23.7862 16.8256 23.7292 16.9485L23.2375 16.7729C23.3249 16.568 23.4422 16.4084 23.5886 16.2942C23.7364 16.1786 23.8973 16.0981 24.0716 16.0527C24.247 16.0059 24.4199 15.9825 24.5899 15.9825C24.6981 15.9825 24.8222 15.9956 24.9628 16.022C25.1048 16.0469 25.242 16.0989 25.3734 16.1779C25.5067 16.2569 25.6173 16.3762 25.7052 16.5358C25.7926 16.6953 25.8366 16.909 25.8366 17.1769V19.3988H25.3188V18.9421H25.2922C25.257 19.0153 25.1985 19.0936 25.1164 19.177C25.0348 19.2604 24.9256 19.3314 24.7894 19.39C24.6532 19.4485 24.487 19.4778 24.2909 19.4778ZM24.3701 19.0123C24.5749 19.0123 24.7479 18.9721 24.8884 18.8916C25.0304 18.8111 25.1372 18.7072 25.2087 18.5798C25.2821 18.4525 25.3188 18.3185 25.3188 18.178V17.7038C25.2966 17.7302 25.2483 17.7543 25.1739 17.7762C25.1005 17.7967 25.0154 17.815 24.9188 17.8311C24.8237 17.8458 24.731 17.8589 24.6401 17.8707C24.5508 17.8809 24.4783 17.8897 24.4228 17.897C24.288 17.9146 24.1624 17.9431 24.0451 17.9826C23.9296 18.0207 23.8359 18.0785 23.7639 18.1561C23.6939 18.2322 23.6586 18.3361 23.6586 18.4678C23.6586 18.6479 23.7253 18.784 23.8586 18.8762C23.9934 18.967 24.1639 19.0123 24.3701 19.0123ZM28.2493 16.0264V16.4655H26.5017V16.0264H28.2493ZM27.0108 15.2185H27.5291V18.4327C27.5291 18.5791 27.5504 18.6889 27.5929 18.762C27.6368 18.8338 27.6924 18.8821 27.7595 18.907C27.8281 18.9304 27.9005 18.9421 27.9769 18.9421C28.0339 18.9421 28.0807 18.9392 28.1174 18.9333C28.1541 18.926 28.1831 18.9201 28.2053 18.9157L28.3106 19.3812C28.2754 19.3944 28.2266 19.4076 28.1633 19.4207C28.1005 19.4354 28.0208 19.4427 27.9242 19.4427C27.7778 19.4427 27.6344 19.4112 27.4938 19.3483C27.3547 19.2854 27.2393 19.1895 27.147 19.0607C27.0562 18.9318 27.0108 18.7694 27.0108 18.5732V15.2185ZM29.0284 19.3988V16.0264H29.5467V19.3988H29.0284ZM29.2921 15.4643C29.1912 15.4643 29.1037 15.4299 29.0308 15.3611C28.9588 15.2924 28.9231 15.2097 28.9231 15.1131C28.9231 15.0165 28.9588 14.9338 29.0308 14.8649C29.1037 14.7961 29.1912 14.7618 29.2921 14.7618C29.3931 14.7618 29.4795 14.7961 29.551 14.8649C29.6244 14.9338 29.6607 15.0165 29.6607 15.1131C29.6607 15.2097 29.6244 15.2924 29.551 15.3611C29.4795 15.4299 29.3931 15.4643 29.2921 15.4643ZM31.8657 19.469C31.5614 19.469 31.2943 19.3966 31.0643 19.2517C30.8359 19.1068 30.6576 18.9041 30.5287 18.6435C30.4011 18.383 30.3379 18.0785 30.3379 17.7302C30.3379 17.3789 30.4011 17.0722 30.5287 16.8102C30.6576 16.5482 30.8359 16.3448 31.0643 16.1999C31.2943 16.0549 31.5614 15.9825 31.8657 15.9825C32.17 15.9825 32.4366 16.0549 32.6651 16.1999C32.8945 16.3448 33.0732 16.5482 33.2007 16.8102C33.3292 17.0722 33.3939 17.3789 33.3939 17.7302C33.3939 18.0785 33.3292 18.383 33.2007 18.6435C33.0732 18.9041 32.8945 19.1068 32.6651 19.2517C32.4366 19.3966 32.17 19.469 31.8657 19.469ZM31.8657 19.0036C32.097 19.0036 32.2873 18.9443 32.4366 18.8257C32.5859 18.7072 32.6965 18.5513 32.7679 18.3581C32.8399 18.1649 32.8757 17.9555 32.8757 17.7302C32.8757 17.5047 32.8399 17.2947 32.7679 17.1C32.6965 16.9054 32.5859 16.748 32.4366 16.628C32.2873 16.508 32.097 16.4479 31.8657 16.4479C31.6343 16.4479 31.444 16.508 31.2947 16.628C31.1455 16.748 31.0349 16.9054 30.9634 17.1C30.8919 17.2947 30.8557 17.5047 30.8557 17.7302C30.8557 17.9555 30.8919 18.1649 30.9634 18.3581C31.0349 18.5513 31.1455 18.7072 31.2947 18.8257C31.444 18.9443 31.6343 19.0036 31.8657 19.0036ZM34.7029 17.3701V19.3988H34.1847V16.0264H34.6855V16.5533H34.7295C34.8082 16.3821 34.9285 16.2445 35.0894 16.1405C35.2502 16.0352 35.4584 15.9825 35.7129 15.9825C35.9414 15.9825 36.1409 16.0293 36.3124 16.123C36.4834 16.2152 36.6167 16.3557 36.7118 16.5445C36.807 16.7319 36.8548 16.969 36.8548 17.2559V19.3988H36.3365V17.2911C36.3365 17.0261 36.2674 16.8197 36.1303 16.6719C35.9926 16.5226 35.8037 16.4479 35.5637 16.4479C35.398 16.4479 35.2502 16.4838 35.1203 16.5555C34.9913 16.6272 34.8894 16.7319 34.815 16.8695C34.7401 17.0071 34.7029 17.1739 34.7029 17.3701ZM39.6104 19.3988V14.9023H41.13C41.4826 14.9023 41.771 14.9659 41.9951 15.0933C42.2202 15.2192 42.3873 15.3897 42.4955 15.6049C42.6037 15.82 42.6578 16.0601 42.6578 16.325C42.6578 16.5899 42.6037 16.8307 42.4955 17.0473C42.3888 17.264 42.2231 17.4367 41.9995 17.5655C41.7753 17.6928 41.4884 17.7565 41.1387 17.7565H40.0495V17.2735H41.1213C41.3628 17.2735 41.5565 17.2317 41.7029 17.1483C41.8492 17.0649 41.9555 16.9522 42.0212 16.8102C42.0888 16.6667 42.1222 16.505 42.1222 16.325C42.1222 16.1449 42.0888 15.9839 42.0212 15.842C41.9555 15.7 41.8488 15.5887 41.701 15.5083C41.5527 15.4263 41.3566 15.3853 41.1121 15.3853H40.1553V19.3988H39.6104ZM44.7986 19.469C44.4943 19.469 44.2272 19.3966 43.9972 19.2517C43.7688 19.1068 43.5905 18.9041 43.4616 18.6435C43.334 18.383 43.2708 18.0785 43.2708 17.7302C43.2708 17.3789 43.334 17.0722 43.4616 16.8102C43.5905 16.5482 43.7688 16.3448 43.9972 16.1999C44.2272 16.0549 44.4943 15.9825 44.7986 15.9825C45.1029 15.9825 45.3695 16.0549 45.598 16.1999C45.8274 16.3448 46.0061 16.5482 46.1336 16.8102C46.2621 17.0722 46.3269 17.3789 46.3269 17.7302C46.3269 18.0785 46.2621 18.383 46.1336 18.6435C46.0061 18.9041 45.8274 19.1068 45.598 19.2517C45.3695 19.3966 45.1029 19.469 44.7986 19.469ZM44.7986 19.0036C45.0299 19.0036 45.2202 18.9443 45.3695 18.8257C45.5188 18.7072 45.6294 18.5513 45.7009 18.3581C45.7728 18.1649 45.8086 17.9555 45.8086 17.7302C45.8086 17.5047 45.7728 17.2947 45.7009 17.1C45.6294 16.9054 45.5188 16.748 45.3695 16.628C45.2202 16.508 45.0299 16.4479 44.7986 16.4479C44.5672 16.4479 44.3769 16.508 44.2276 16.628C44.0784 16.748 43.9678 16.9054 43.8963 17.1C43.8248 17.2947 43.7886 17.5047 43.7886 17.7302C43.7886 17.9555 43.8248 18.1649 43.8963 18.3581C43.9678 18.5513 44.0784 18.7072 44.2276 18.8257C44.3769 18.9443 44.5672 19.0036 44.7986 19.0036ZM47.7672 19.3988L46.7393 16.0264H47.2842L48.0131 18.6084H48.0479L48.768 16.0264H49.3216L50.0331 18.5996H50.0679L50.7967 16.0264H51.3416L50.3137 19.3988H49.8046L49.067 16.808H49.0139L48.2763 19.3988H47.7672ZM53.3258 19.469C53.0008 19.469 52.7206 19.3973 52.4849 19.2539C52.2506 19.109 52.07 18.907 51.9425 18.6479C51.8164 18.3874 51.7536 18.0844 51.7536 17.7389C51.7536 17.3935 51.8164 17.0891 51.9425 16.8256C52.07 16.5606 52.2468 16.3543 52.4738 16.2064C52.7023 16.0571 52.9684 15.9825 53.2732 15.9825C53.4485 15.9825 53.6219 16.0118 53.7934 16.0703C53.9644 16.1289 54.1204 16.224 54.261 16.3557C54.4015 16.486 54.5136 16.6587 54.5967 16.8739C54.6802 17.0891 54.7223 17.354 54.7223 17.6687V17.8882H52.1226V17.4404H54.1953C54.1953 17.25 54.1571 17.0803 54.0808 16.931C54.0064 16.7817 53.8992 16.6638 53.7606 16.5775C53.6229 16.4911 53.4601 16.4479 53.2732 16.4479C53.0665 16.4479 52.8882 16.4992 52.737 16.6016C52.5878 16.7026 52.4728 16.8344 52.3926 16.9968C52.312 17.1593 52.2719 17.3335 52.2719 17.5194V17.818C52.2719 18.0726 52.3158 18.2885 52.4037 18.4657C52.4926 18.6413 52.6163 18.7752 52.7747 18.8674C52.9327 18.9582 53.1162 19.0036 53.3258 19.0036C53.4616 19.0036 53.5847 18.9845 53.6944 18.9465C53.806 18.907 53.9016 18.8484 53.9823 18.7708C54.0624 18.6918 54.1248 18.5937 54.1687 18.4766L54.6691 18.6171C54.6165 18.7869 54.5281 18.9362 54.4035 19.065C54.2793 19.1924 54.1257 19.2919 53.9427 19.3636C53.7596 19.4339 53.5538 19.469 53.3258 19.469ZM55.5101 19.3988V16.0264H56.011V16.5358H56.0457C56.1076 16.3689 56.2187 16.2335 56.3795 16.1296C56.5408 16.0257 56.722 15.9737 56.9243 15.9737C56.962 15.9737 57.0098 15.9744 57.0668 15.9759C57.1238 15.9774 57.1673 15.9796 57.1963 15.9825V16.5094C57.1789 16.505 57.1388 16.4985 57.0755 16.4897C57.0142 16.4794 56.949 16.4743 56.8804 16.4743C56.7162 16.4743 56.5698 16.5087 56.4413 16.5775C56.3138 16.6448 56.2129 16.7385 56.138 16.8585C56.0651 16.9771 56.0283 17.1125 56.0283 17.2647V19.3988H55.5101ZM59.1221 19.469C58.797 19.469 58.5169 19.3973 58.2812 19.2539C58.0469 19.109 57.8662 18.907 57.7387 18.6479C57.6127 18.3874 57.5499 18.0844 57.5499 17.7389C57.5499 17.3935 57.6127 17.0891 57.7387 16.8256C57.8662 16.5606 58.043 16.3543 58.27 16.2064C58.4985 16.0571 58.7647 15.9825 59.0694 15.9825C59.2448 15.9825 59.4182 16.0118 59.5897 16.0703C59.7607 16.1289 59.9167 16.224 60.0572 16.3557C60.1978 16.486 60.3098 16.6587 60.3929 16.8739C60.4765 17.0891 60.5185 17.354 60.5185 17.6687V17.8882H57.9189V17.4404H59.9915C59.9915 17.25 59.9534 17.0803 59.8771 16.931C59.8027 16.7817 59.6954 16.6638 59.5568 16.5775C59.4192 16.4911 59.2564 16.4479 59.0694 16.4479C58.8627 16.4479 58.6845 16.4992 58.5333 16.6016C58.384 16.7026 58.2691 16.8344 58.1889 16.9968C58.1082 17.1593 58.0681 17.3335 58.0681 17.5194V17.818C58.0681 18.0726 58.1121 18.2885 58.2 18.4657C58.2889 18.6413 58.4125 18.7752 58.571 18.8674C58.7289 18.9582 58.9125 19.0036 59.1221 19.0036C59.2578 19.0036 59.381 18.9845 59.4906 18.9465C59.6022 18.907 59.6979 18.8484 59.7785 18.7708C59.8587 18.6918 59.921 18.5937 59.965 18.4766L60.4654 18.6171C60.4127 18.7869 60.3243 18.9362 60.1997 19.065C60.0756 19.1924 59.922 19.2919 59.7389 19.3636C59.5559 19.4339 59.3501 19.469 59.1221 19.469ZM62.58 19.469C62.2989 19.469 62.0507 19.398 61.8357 19.256C61.6203 19.1126 61.4522 18.9106 61.3305 18.6501C61.2092 18.3881 61.1484 18.0785 61.1484 17.7214C61.1484 17.3671 61.2092 17.0598 61.3305 16.7992C61.4522 16.5387 61.6213 16.3374 61.8376 16.1955C62.0545 16.0535 62.3047 15.9825 62.5887 15.9825C62.808 15.9825 62.9819 16.0191 63.109 16.0922C63.2379 16.164 63.336 16.2459 63.4031 16.3381C63.4722 16.4289 63.5253 16.5036 63.5635 16.5621H63.6074V14.9023H64.1257V19.3988H63.6248V18.8806H63.5635C63.5253 18.9421 63.4712 19.0197 63.4012 19.1133C63.3307 19.2056 63.2307 19.2882 63.1003 19.3614C62.9698 19.4332 62.7964 19.469 62.58 19.469ZM62.6501 19.0036C62.8578 19.0036 63.0336 18.9494 63.1771 18.8411C63.3205 18.7313 63.4297 18.5798 63.5041 18.3866C63.5789 18.1919 63.6161 17.9673 63.6161 17.7126C63.6161 17.4608 63.5794 17.2405 63.5065 17.0517C63.4331 16.8615 63.3249 16.7136 63.1814 16.6082C63.038 16.5014 62.8612 16.4479 62.6501 16.4479C62.4308 16.4479 62.2477 16.5043 62.1014 16.617C61.9565 16.7282 61.8473 16.8797 61.7744 17.0715C61.7024 17.2618 61.6667 17.4755 61.6667 17.7126C61.6667 17.9526 61.7034 18.1707 61.7763 18.3668C61.8512 18.5615 61.9608 18.7167 62.1057 18.8323C62.2521 18.9465 62.4337 19.0036 62.6501 19.0036ZM70.5741 16.3074H70.0292C69.9973 16.1508 69.9408 16.0132 69.8601 15.8947C69.7814 15.7761 69.6848 15.6766 69.5703 15.5961C69.4578 15.5141 69.3327 15.4526 69.195 15.4117C69.0574 15.3707 68.9139 15.3502 68.7646 15.3502C68.4927 15.3502 68.2459 15.419 68.0247 15.5566C67.8054 15.6941 67.6305 15.8969 67.5001 16.1647C67.3711 16.4326 67.3069 16.7612 67.3069 17.1505C67.3069 17.5399 67.3711 17.8685 67.5001 18.1363C67.6305 18.4042 67.8054 18.6069 68.0247 18.7445C68.2459 18.8821 68.4927 18.9509 68.7646 18.9509C68.9139 18.9509 69.0574 18.9304 69.195 18.8894C69.3327 18.8484 69.4578 18.7876 69.5703 18.7072C69.6848 18.6252 69.7814 18.5249 69.8601 18.4064C69.9408 18.2864 69.9973 18.1488 70.0292 17.9936H70.5741C70.533 18.2234 70.4581 18.4291 70.3499 18.6106C70.2417 18.792 70.107 18.9465 69.9461 19.0738C69.7848 19.1997 69.6041 19.2956 69.4037 19.3614C69.2047 19.4273 68.9917 19.4603 68.7646 19.4603C68.3811 19.4603 68.0401 19.3665 67.7416 19.1792C67.4431 18.9919 67.2079 18.7255 67.0369 18.38C66.8654 18.0346 66.7799 17.6248 66.7799 17.1505C66.7799 16.6763 66.8654 16.2665 67.0369 15.921C67.2079 15.5756 67.4431 15.3092 67.7416 15.1219C68.0401 14.9345 68.3811 14.8408 68.7646 14.8408C68.9917 14.8408 69.2047 14.8737 69.4037 14.9396C69.6041 15.0054 69.7848 15.102 69.9461 15.2294C70.107 15.3553 70.2417 15.509 70.3499 15.6905C70.4581 15.8705 70.533 16.0762 70.5741 16.3074ZM72.7535 19.469C72.4492 19.469 72.182 19.3966 71.9521 19.2517C71.7236 19.1068 71.5454 18.9041 71.4165 18.6435C71.2889 18.383 71.2256 18.0785 71.2256 17.7302C71.2256 17.3789 71.2889 17.0722 71.4165 16.8102C71.5454 16.5482 71.7236 16.3448 71.9521 16.1999C72.182 16.0549 72.4492 15.9825 72.7535 15.9825C73.0578 15.9825 73.3244 16.0549 73.5529 16.1999C73.7823 16.3448 73.961 16.5482 74.0885 16.8102C74.217 17.0722 74.2817 17.3789 74.2817 17.7302C74.2817 18.0785 74.217 18.383 74.0885 18.6435C73.961 18.9041 73.7823 19.1068 73.5529 19.2517C73.3244 19.3966 73.0578 19.469 72.7535 19.469ZM72.7535 19.0036C72.9848 19.0036 73.1751 18.9443 73.3244 18.8257C73.4736 18.7072 73.5842 18.5513 73.6557 18.3581C73.7277 18.1649 73.7634 17.9555 73.7634 17.7302C73.7634 17.5047 73.7277 17.2947 73.6557 17.1C73.5842 16.9054 73.4736 16.748 73.3244 16.628C73.1751 16.508 72.9848 16.4479 72.7535 16.4479C72.5221 16.4479 72.3318 16.508 72.1825 16.628C72.0333 16.748 71.9227 16.9054 71.8512 17.1C71.7797 17.2947 71.7435 17.5047 71.7435 17.7302C71.7435 17.9555 71.7797 18.1649 71.8512 18.3581C71.9227 18.5513 72.0333 18.7072 72.1825 18.8257C72.3318 18.9443 72.5221 19.0036 72.7535 19.0036ZM75.0724 19.3988V16.0264H75.5733V16.5533H75.6173C75.6873 16.3733 75.8008 16.2335 75.9573 16.134C76.1138 16.033 76.3022 15.9825 76.5215 15.9825C76.7442 15.9825 76.9292 16.033 77.077 16.134C77.2262 16.2335 77.3426 16.3733 77.4262 16.5533H77.4615C77.5479 16.3792 77.6774 16.2408 77.8498 16.1384C78.0227 16.0344 78.2299 15.9825 78.4715 15.9825C78.7729 15.9825 79.0197 16.0769 79.2115 16.2657C79.4027 16.4531 79.4989 16.7451 79.4989 17.1418V19.3988H78.9806V17.1418C78.9806 16.8929 78.9125 16.715 78.7767 16.6082C78.6405 16.5014 78.4802 16.4479 78.2956 16.4479C78.0585 16.4479 77.8749 16.5197 77.7445 16.6631C77.6141 16.8051 77.5494 16.9851 77.5494 17.2032V19.3988H77.0224V17.0891C77.0224 16.8973 76.9601 16.7429 76.8355 16.6258C76.7113 16.5072 76.551 16.4479 76.3549 16.4479C76.2201 16.4479 76.094 16.4838 75.9771 16.5555C75.8617 16.6272 75.768 16.7268 75.696 16.8541C75.626 16.98 75.5907 17.1256 75.5907 17.2911V19.3988H75.0724ZM80.4461 19.3988V16.0264H80.9469V16.5533H80.9909C81.0609 16.3733 81.1745 16.2335 81.331 16.134C81.4874 16.033 81.6758 15.9825 81.8951 15.9825C82.1178 15.9825 82.3028 16.033 82.4506 16.134C82.5998 16.2335 82.7163 16.3733 82.7998 16.5533H82.8351C82.9215 16.3792 83.051 16.2408 83.2234 16.1384C83.3964 16.0344 83.6036 15.9825 83.8451 15.9825C84.1465 15.9825 84.3933 16.0769 84.5851 16.2657C84.7763 16.4531 84.8725 16.7451 84.8725 17.1418V19.3988H84.3542V17.1418C84.3542 16.8929 84.2861 16.715 84.1504 16.6082C84.0141 16.5014 83.8538 16.4479 83.6693 16.4479C83.4321 16.4479 83.2486 16.5197 83.1181 16.6631C82.9877 16.8051 82.923 16.9851 82.923 17.2032V19.3988H82.396V17.0891C82.396 16.8973 82.3337 16.7429 82.2091 16.6258C82.0849 16.5072 81.9246 16.4479 81.7285 16.4479C81.5937 16.4479 81.4676 16.4838 81.3508 16.5555C81.2353 16.6272 81.1416 16.7268 81.0696 16.8541C80.9996 16.98 80.9643 17.1256 80.9643 17.2911V19.3988H80.4461ZM87.234 19.469C86.9089 19.469 86.6287 19.3973 86.393 19.2539C86.1588 19.109 85.9781 18.907 85.8506 18.6479C85.7245 18.3874 85.6617 18.0844 85.6617 17.7389C85.6617 17.3935 85.7245 17.0891 85.8506 16.8256C85.9781 16.5606 86.1549 16.3543 86.3819 16.2064C86.6104 16.0571 86.8765 15.9825 87.1813 15.9825C87.3567 15.9825 87.5301 16.0118 87.7015 16.0703C87.8725 16.1289 88.0285 16.224 88.1691 16.3557C88.3097 16.486 88.4217 16.6587 88.5048 16.8739C88.5883 17.0891 88.6304 17.354 88.6304 17.6687V17.8882H86.0308V17.4404H88.1034C88.1034 17.25 88.0652 17.0803 87.9889 16.931C87.9145 16.7817 87.8073 16.6638 87.6687 16.5775C87.531 16.4911 87.3682 16.4479 87.1813 16.4479C86.9746 16.4479 86.7963 16.4992 86.6452 16.6016C86.4959 16.7026 86.3809 16.8344 86.3008 16.9968C86.2201 17.1593 86.18 17.3335 86.18 17.5194V17.818C86.18 18.0726 86.224 18.2885 86.3119 18.4657C86.4008 18.6413 86.5244 18.7752 86.6828 18.8674C86.8408 18.9582 87.0243 19.0036 87.234 19.0036C87.3697 19.0036 87.4929 18.9845 87.6025 18.9465C87.7141 18.907 87.8097 18.8484 87.8904 18.7708C87.9706 18.6918 88.0329 18.5937 88.0768 18.4766L88.5773 18.6171C88.5246 18.7869 88.4362 18.9362 88.3116 19.065C88.1874 19.1924 88.0338 19.2919 87.8508 19.3636C87.6677 19.4339 87.462 19.469 87.234 19.469ZM89.4182 19.3988V16.0264H89.9191V16.5358H89.9538C90.0157 16.3689 90.1268 16.2335 90.2876 16.1296C90.449 16.0257 90.6301 15.9737 90.8325 15.9737C90.8701 15.9737 90.918 15.9744 90.975 15.9759C91.032 15.9774 91.0754 15.9796 91.1044 15.9825V16.5094C91.087 16.505 91.0469 16.4985 90.9837 16.4897C90.9223 16.4794 90.8571 16.4743 90.7885 16.4743C90.6243 16.4743 90.4779 16.5087 90.3494 16.5775C90.2219 16.6448 90.121 16.7385 90.0461 16.8585C89.9732 16.9771 89.9365 17.1125 89.9365 17.2647V19.3988H89.4182ZM92.9863 19.469C92.6699 19.469 92.3979 19.3944 92.1695 19.2451C91.941 19.0958 91.7652 18.8901 91.6425 18.6281C91.5193 18.3661 91.458 18.0668 91.458 17.7302C91.458 17.3877 91.5208 17.0854 91.6468 16.8234C91.7744 16.5599 91.9511 16.3543 92.1782 16.2064C92.4066 16.0571 92.6728 15.9825 92.9776 15.9825C93.2143 15.9825 93.4282 16.0264 93.6185 16.1142C93.8089 16.202 93.9644 16.325 94.0861 16.4831C94.2074 16.6411 94.2832 16.8256 94.3122 17.0364H93.7939C93.7548 16.8827 93.6668 16.7465 93.5306 16.628C93.3959 16.508 93.2143 16.4479 92.9863 16.4479C92.7844 16.4479 92.6071 16.5006 92.4549 16.606C92.3042 16.7099 92.1864 16.8571 92.1014 17.0473C92.0178 17.2361 91.9763 17.4579 91.9763 17.7126C91.9763 17.9731 92.0173 18.2 92.099 18.3932C92.1825 18.5864 92.2994 18.7364 92.4506 18.8433C92.6027 18.9501 92.781 19.0036 92.9863 19.0036C93.1206 19.0036 93.2432 18.9801 93.3529 18.9333C93.4625 18.8865 93.5553 18.8191 93.6316 18.7313C93.7079 18.6435 93.762 18.5381 93.7939 18.4151H94.3122C94.2832 18.6142 94.2107 18.7935 94.0948 18.9531C93.9808 19.1111 93.8291 19.2371 93.6403 19.3307C93.4529 19.4229 93.235 19.469 92.9863 19.469ZM96.4838 19.469C96.1588 19.469 95.8786 19.3973 95.6429 19.2539C95.4086 19.109 95.228 18.907 95.1004 18.6479C94.9744 18.3874 94.9116 18.0844 94.9116 17.7389C94.9116 17.3935 94.9744 17.0891 95.1004 16.8256C95.228 16.5606 95.4048 16.3543 95.6318 16.2064C95.8602 16.0571 96.1264 15.9825 96.4312 15.9825C96.6065 15.9825 96.7799 16.0118 96.9514 16.0703C97.1224 16.1289 97.2784 16.224 97.419 16.3557C97.5595 16.486 97.6716 16.6587 97.7547 16.8739C97.8382 17.0891 97.8802 17.354 97.8802 17.6687V17.8882H95.2806V17.4404H97.3533C97.3533 17.25 97.3151 17.0803 97.2388 16.931C97.1644 16.7817 97.0572 16.6638 96.9185 16.5775C96.7809 16.4911 96.6181 16.4479 96.4312 16.4479C96.2244 16.4479 96.0462 16.4992 95.895 16.6016C95.7458 16.7026 95.6308 16.8344 95.5506 16.9968C95.47 17.1593 95.4299 17.3335 95.4299 17.5194V17.818C95.4299 18.0726 95.4738 18.2885 95.5617 18.4657C95.6506 18.6413 95.7743 18.7752 95.9327 18.8674C96.0907 18.9582 96.2742 19.0036 96.4838 19.0036C96.6196 19.0036 96.7427 18.9845 96.8524 18.9465C96.964 18.907 97.0596 18.8484 97.1403 18.7708C97.2204 18.6918 97.2827 18.5937 97.3267 18.4766L97.8271 18.6171C97.7745 18.7869 97.6861 18.9362 97.5614 19.065C97.4373 19.1924 97.2837 19.2919 97.1006 19.3636C96.9176 19.4339 96.7118 19.469 96.4838 19.469Z" fill="black"/>
</svg>
