<svg width="18" height="17" viewBox="0 0 18 17" fill="none" xmlns="http://www.w3.org/2000/svg">
<g id="Redo">
<path id="Vector" d="M0.0191517 9.60754C0.163502 7.8442 0.923922 6.41468 2.28365 5.32094C3.36113 4.45433 4.60744 4.05244 5.9749 4.04916C8.98822 4.04262 12.0015 4.0472 15.0142 4.04655C15.1186 4.04655 15.223 4.04 15.3268 4.03673C15.2726 3.97651 15.2211 3.91498 15.165 3.85738C14.6488 3.33179 14.1262 2.81142 13.6158 2.27994C13.2079 1.85448 13.3258 1.19601 13.8427 0.98525C14.1874 0.844524 14.4813 0.94205 14.739 1.20518C15.7257 2.21186 16.7161 3.21331 17.7034 4.21934C18.0971 4.62058 18.0958 5.05912 17.7021 5.4597C16.7213 6.45919 15.7373 7.45737 14.7545 8.45554C14.7094 8.50136 14.6643 8.54914 14.6134 8.58907C14.1945 8.92092 13.5759 8.737 13.4135 8.22449C13.311 7.90115 13.3941 7.61904 13.6339 7.37686C14.1977 6.80741 14.7564 6.23272 15.3171 5.65999C15.2365 5.57687 15.1341 5.61614 15.0426 5.61614C12.0376 5.61352 9.03204 5.61417 6.0271 5.61417C5.72164 5.61417 5.41748 5.63577 5.11846 5.69992C3.41655 6.06385 2.25465 7.07904 1.74105 8.76056C1.23647 10.4139 1.61796 11.9115 2.78888 13.1663C3.64338 14.082 4.73181 14.5042 5.96781 14.5088C8.28193 14.5179 10.5961 14.5114 12.9102 14.5114C13.0068 14.5114 13.1035 14.5081 13.1995 14.516C13.5565 14.5461 13.8433 14.8413 13.871 15.2013C13.911 15.7308 13.5636 16.077 12.9817 16.077C10.6276 16.0783 8.27291 16.081 5.91884 16.0744C5.46194 16.0731 5.00698 16.0168 4.55975 15.9108C1.7752 15.2543 -0.225084 12.5877 0.0191517 9.60754Z" fill="#666666"/>
</g>
</svg>
