<svg width="18" height="17" viewBox="0 0 18 17" fill="none" xmlns="http://www.w3.org/2000/svg">
<g id="Undo">
<path id="Vector" d="M17.9789 9.60754C17.8345 7.8442 17.0741 6.41468 15.7144 5.32094C14.6369 4.45432 13.3906 4.05244 12.0231 4.04916C9.00983 4.04262 5.99651 4.0472 2.98384 4.04655C2.87944 4.04655 2.77504 4.04 2.67129 4.03673C2.72542 3.97651 2.77698 3.91498 2.83304 3.85738C3.34922 3.33178 3.87185 2.81142 4.38223 2.27994C4.79015 1.85448 4.67222 1.19601 4.1554 0.98525C3.81063 0.844524 3.51677 0.94205 3.259 1.20518C2.27239 2.21186 1.28192 3.21331 0.294663 4.21934C-0.0990791 4.62058 -0.0977903 5.05912 0.295952 5.4597C1.27676 6.45919 2.26079 7.45737 3.24354 8.45554C3.28865 8.50136 3.33376 8.54914 3.38467 8.58907C3.80354 8.92092 4.42219 8.737 4.58458 8.22449C4.68704 7.90115 4.60391 7.61904 4.36419 7.37686C3.80032 6.8074 3.24161 6.23272 2.68096 5.65999C2.76151 5.57687 2.86397 5.61614 2.95548 5.61614C5.96042 5.61352 8.96601 5.61417 11.9709 5.61417C12.2764 5.61417 12.5806 5.63577 12.8796 5.69992C14.5815 6.06384 15.7434 7.07904 16.257 8.76056C16.7616 10.4139 16.3801 11.9115 15.2092 13.1663C14.3547 14.082 13.2662 14.5042 12.0302 14.5088C9.71611 14.5179 7.40199 14.5114 5.08787 14.5114C4.99121 14.5114 4.89455 14.5081 4.79853 14.516C4.44152 14.5461 4.15475 14.8413 4.12704 15.2013C4.08709 15.7308 4.43443 16.077 5.01634 16.077C7.37042 16.0783 9.72514 16.081 12.0792 16.0744C12.5361 16.0731 12.9911 16.0168 13.4383 15.9108C16.2228 15.2543 18.2231 12.5877 17.9789 9.60754Z" fill="#666666"/>
</g>
</svg>
